# xmcd
#
# Track frame offsets: 
#        150
#        12421
#        28968
#        42492
#        57141
#        78181
#
# Disc length: 1260 seconds
#
# Revision: 0
# Processed by: cddbd v1.5.1PL0 Copyright (c) Steve Scherf et al.
# Submitted via: ExactAudioCopy v0.95a5
#
DISCID=4504ea06
DTITLE=Ratt - Ratt (EP) (Vinyl)
DYEAR=1900
DGENRE=
TTITLE0=Sweet Cheater
TTITLE1=You Think You're Tough
TTITLE2=U Got It
TTITLE3=Tell The World
TTITLE4=Back For More
TTITLE5=Walkin' The Dog
EXTD=
EXTT0=
EXTT1=
EXTT2=
EXTT3=
EXTT4=
EXTT5=
PLAYORDER=
